<svg width="265" height="200" viewBox="0 0 265 200" fill="none" xmlns="http://www.w3.org/2000/svg">
<path d="M38.8562 191.192C38.0959 193.224 36.8424 195.036 35.2086 196.464C33.6124 197.807 31.7217 198.755 29.6904 199.23C27.4182 199.758 25.0915 200.017 22.7588 199.999C17.147 199.999 12.7477 198.727 9.56077 196.183C6.37385 193.639 4.78038 189.743 4.78038 184.495V157.46L0 155.12V154.081H16.1078V155.12L11.0884 157.46V183.268C11.0287 185.429 11.3632 187.582 12.0757 189.622C12.6661 191.236 13.6651 192.669 14.9751 193.781C16.3288 194.886 17.9124 195.675 19.61 196.089C21.6502 196.587 23.7453 196.825 25.8453 196.796C27.6821 196.855 29.5073 196.484 31.1764 195.715C32.5908 195.027 33.8175 194.007 34.7513 192.741C35.7004 191.423 36.3753 189.927 36.7362 188.343C37.1437 186.587 37.346 184.79 37.339 182.988V157.46L31.5298 155.12V154.081L45.6111 154.008V155.048L40.1656 157.377V182.8C40.2565 185.655 39.8123 188.501 38.8562 191.192Z" fill="#231F20"/>
<path d="M90.3392 157.013L84.7482 155.11V154.07H98.549V155.11L93.1659 157.013V199.355H91.2537L61.1165 160.486V196.381L66.0008 198.46V199.5H53.3328V198.46L58.2067 196.381V157.013L53.3328 155.11V154.07H63.8704C67.4176 158.084 71.3701 162.982 75.7278 168.763C80.0856 174.544 84.9561 181.258 90.3392 188.904V157.013Z" fill="#231F20"/>
<path d="M116.59 196.183L121.183 198.513V199.438L106.322 199.365V198.606L110.999 196.131V157.315L106.26 155.121V154.081H121.183V155.121L116.59 157.315V196.183Z" fill="#231F20"/>
<path d="M152.765 196.328L159 198.408V199.448L140.034 199.375V198.46L146.197 196.38V156.597H134.412L130.172 163.044H128.863L130.765 154.122H168.062L169.964 163.044H168.696L164.445 156.597H152.765V196.328Z" fill="#231F20"/>
<path d="M177.706 199.437V198.304L181.946 196.11V157.637L177.706 155.048V154.122H212.093L213.579 163.262H212.228L207.916 156.597C194.898 156.597 188.385 156.621 188.378 156.67V174.794H204.798L202.719 177.414H188.399V196.963H207.936L212.176 190.516H213.6L212.114 199.365L177.706 199.437Z" fill="#231F20"/>
<path d="M228.149 196.11L233.522 198.45V199.511H219.025V198.45L224.325 196.11L236.193 178.87L238.001 181.719L228.149 196.11Z" fill="#231F20"/>
<path d="M261.903 153.977V155.121L256.592 157.377L247.156 170.739L245.442 168.015L253.059 157.377L247.458 155.121V153.977H261.903Z" fill="#231F20"/>
<path d="M244.849 174.025L259.076 196.038L264.376 198.45V199.49H246.616V198.45L251.719 196.11L240.287 178.34L238.448 175.574L226.705 157.315L221.394 155.121V153.987H239.331V155.121L234.239 157.315L243.083 171.332L244.849 174.025Z" fill="#E82329"/>
<path d="M181.863 64.2505C181.859 70.7681 180.573 77.2212 178.077 83.2414C175.581 89.2616 171.925 94.7309 167.316 99.3371C162.708 103.943 157.238 107.596 151.219 110.087C145.199 112.578 138.749 113.859 132.235 113.855C125.721 113.852 119.272 112.565 113.255 110.067C107.239 107.57 101.772 103.911 97.1689 99.3003C92.5653 94.6893 88.9146 89.2161 86.425 83.1934C83.9354 77.1706 82.6558 70.7161 82.6592 64.1986V30.4668L62.4777 5.75021C62.0571 5.23322 61.7917 4.60751 61.7122 3.94568C61.6327 3.28385 61.7424 2.61303 62.0285 2.01104C62.3146 1.40906 62.7655 0.900595 63.3287 0.54464C63.892 0.188686 64.5446 -0.000164422 65.2108 1.07413e-07H102.529C103.822 1.07413e-07 105.061 0.5138 105.975 1.42837C106.889 2.34294 107.403 3.58336 107.403 4.87676V64.5209C107.41 71.043 109.981 77.3006 114.56 81.9425C119.139 86.5844 125.359 89.2382 131.876 89.331C145.708 89.5182 157.015 77.4771 157.015 63.6475V4.87676C157.015 3.58336 157.529 2.34294 158.443 1.42837C159.357 0.5138 160.596 1.07413e-07 161.889 1.07413e-07H199.218C199.883 0.0017976 200.534 0.19207 201.096 0.548797C201.658 0.905525 202.107 1.41412 202.392 2.01573C202.677 2.61734 202.785 3.28736 202.705 3.94826C202.626 4.60916 202.36 5.23391 201.94 5.75021L181.863 30.4668V64.2505Z" fill="#E82329"/>
</svg>
